PathFileType	4	(X/Y/Z)	/home/utkubuntu/opensim/opensim_mycode/release_code/bioimitation/imitation_envs/data/02905/02905_PRE/experimental_data/task.trc
DataRate	CameraRate	NumFrames	NumMarkers	Units	OrigDataRate	OrigDataStartFrame	OrigNumFrames
100.000000	100.000000	4	53	mm	100.000000	101	406
Frame#	Time	C7			CLAV			LANK			LASI			LBHD			LELB			LFHD			LFIN			LFMH			LHEE			LKNE			LKNI			LMED			LMET			LMIF			LPSI			LSHO			LTAD			LTHAP			LTHI			LTIAD			LTIB			LTOE			LTTU			LWRA			LWRB			RANK			RASI			RBAK			RBHD			RELB			RFHD			RFIN			RFMH			RHEE			RKNE			RKNI			RMED			RMET			RMIF			RPSI			RSHO			RTAD			RTHAP			RTHI			RTIAD			RTIB			RTOE			RTTU			RWRA			RWRB			STRN			T10			
		X1	Y1	Z1	X2	Y2	Z2	X3	Y3	Z3	X4	Y4	Z4	X5	Y5	Z5	X6	Y6	Z6	X7	Y7	Z7	X8	Y8	Z8	X9	Y9	Z9	X10	Y10	Z10	X11	Y11	Z11	X12	Y12	Z12	X13	Y13	Z13	X14	Y14	Z14	X15	Y15	Z15	X16	Y16	Z16	X17	Y17	Z17	X18	Y18	Z18	X19	Y19	Z19	X20	Y20	Z20	X21	Y21	Z21	X22	Y22	Z22	X23	Y23	Z23	X24	Y24	Z24	X25	Y25	Z25	X26	Y26	Z26	X27	Y27	Z27	X28	Y28	Z28	X29	Y29	Z29	X30	Y30	Z30	X31	Y31	Z31	X32	Y32	Z32	X33	Y33	Z33	X34	Y34	Z34	X35	Y35	Z35	X36	Y36	Z36	X37	Y37	Z37	X38	Y38	Z38	X39	Y39	Z39	X40	Y40	Z40	X41	Y41	Z41	X42	Y42	Z42	X43	Y43	Z43	X44	Y44	Z44	X45	Y45	Z45	X46	Y46	Z46	X47	Y47	Z47	X48	Y48	Z48	X49	Y49	Z49	X50	Y50	Z50	X51	Y51	Z51	X52	Y52	Z52	X53	Y53	Z53	

102	1.01	-465.0809936523438	1440.739990234375	-266.2630004882809	-368.8630065917969	1339.754028320312	-255.0310058593747	-598.3280029296875	75.53399658203131	-283.2210083007812	-390.8869934082031	933.1240234375001	-361.6539916992185	-416.4920043945312	1547.045043945312	-340.2839965820309	-383.0230102539062	1035.89794921875	-494.1619873046873	-264.8900146484375	1599.787963867188	-315.1619873046872	-224.6710052490234	799.5989990234376	-501.2630004882811	-445.7650146484375	33.76699829101568	-250.8869934082031	-639.5330200195312	38.42699813842778	-238.7870025634766	-534.3790283203125	462.8819885253907	-345.0450134277343	-504.6619873046875	456.0039978027344	-231.9459991455077	-572.02001953125	88.78099822998051	-208.2319946289062	-501.3999938964844	22.26799964904793	-333.18798828125	-512.7949829101562	71.19200134277349	-273.4989929199219	-542.2689819335938	954.1389770507814	-275.4150085449216	-433.27099609375	1358.572021484375	-429.617004394531	-442.5530090332031	521.5549926757814	-303.4440002441405	-389.0889892578125	682.4359741210939	-321.0140075683592	-516.1939697265625	559.2600097656251	-400.9209899902343	-531.1170043945312	204.0549926757813	-269.9379882812499	-592.655029296875	290.6010131835938	-372.8699951171874	-463.2770080566406	36.00799942016608	-293.5239868164062	-491.1889953613281	378.4939880371094	-293.6369934082031	-228.6080017089844	844.2100219726564	-454.2359924316405	-269.6709899902344	830.0659790039064	-508.5769958496092	-284.9800109863281	90.06800079345706	-146.7169952392578	-369.6919860839844	937.0189819335938	-119.2880020141599	-535.801025390625	1327.119018554688	-139.2279968261716	-420.5719909667969	1533.034057617188	-179.1820068359372	-533.2650146484375	1073.484985351562	-18.884000778198	-277.1159973144531	1586.427978515625	-191.0939941406247	-431.8940124511719	786.0800170898438	23.6319999694826	-135.97900390625	54.68299865722661	-180.3780059814453	-332.9129943847656	49.5219993591309	-191.2890014648438	-238.85400390625	492.3599853515625	-104.9680023193358	-233.8650054931641	488.1250000000001	-224.1390075683593	-266.1669921875	107.7559967041016	-226.1390075683593	-189.22900390625	37.4930000305176	-109.7490005493164	-190.6849975585938	83.28299713134768	-158.0899963378906	-533.1500244140625	950.3480224609375	-171.3760070800779	-451.8970031738281	1376.788940429688	-79.49099731445281	-197.9400024414062	597.2979736328125	-152.7019958496092	-267.6090087890625	753.1939697265625	-144.9949951171873	-270.6539916992188	596.4630126953125	-47.74300003051744	-218.3600006103516	279.1449890136719	-164.9309997558593	-289.5669860839844	309.3980102539062	-67.87599945068352	-153.9759979248047	53.75199890136722	-141.47900390625	-186.8890075683594	421.7990112304688	-154.5570068359374	-423.2300109863281	839.81201171875	-24.53199958801251	-479.4760131835938	829.25	18.42200088500995	-345.031005859375	1181.339965820312	-247.2570037841794	-548.9630126953125	1142.342041015625	-238.0700073242185	
103	1.02	-454.2409973144531	1439.232055664062	-266.2139892578122	-357.7239990234375	1338.4560546875	-255.0899963378903	-598.1690063476562	76.04799652099615	-283.114990234375	-380.7990112304688	931.3839721679689	-361.7619934082029	-406.2510070800781	1545.871948242188	-340.0180053710934	-366.0480041503906	1036.43505859375	-496.5589904785154	-255.0859985351562	1599.536987304688	-314.399993896484	-201.3009948730469	804.1989746093751	-502.230987548828	-445.7850036621094	33.74599838256842	-250.8930053710938	-639.5	39.09199905395513	-238.7250061035156	-530.2979736328125	462.7799987792969	-345.1480102539061	-500.9869995117188	455.6319885253907	-231.9850006103514	-571.593017578125	89.13999938964848	-208.2850036621093	-501.4219970703125	22.27599906921394	-333.1510009765625	-512.6220092773438	71.3160018920899	-273.5239868164062	-531.8909912109375	952.9769897460939	-275.4479980468748	-422.0379943847656	1357.587036132812	-429.5979919433591	-437.8999938964844	520.4279785156251	-303.2879943847655	-382.3210144042969	680.7449951171876	-320.605010986328	-510.6650085449219	558.8209838867189	-401.1759948730468	-529.8839721679688	204.0019989013672	-269.8810119628906	-590.2109985351562	291.0530090332032	-373.0750122070312	-463.2349853515625	35.9780006408692	-293.5539855957031	-488.2380065917969	378.0039978027344	-293.6369934082031	-207.1260070800781	848.6770019531251	-455.2179870605467	-246.9040069580078	833.5319824218751	-510.115997314453	-251.1950073242188	86.53700256347659	-147.8710021972656	-358.6310119628906	935.0280151367188	-119.3679962158201	-524.77001953125	1325.484008789062	-139.4579925537107	-410.6419982910156	1531.391967773438	-178.9689941406247	-523.094970703125	1071.754028320312	-20.36800003051734	-267.5050048828125	1585.781005859375	-190.4140014648434	-424.364013671875	783.5260009765625	22.71199989318865	-100.7679977416992	57.37200164794926	-181.7180023193359	-297.4440002441406	44.00400161743168	-192.7259979248047	-227.1329956054688	490.6619873046875	-105.2809982299804	-221.0670013427734	487.2720031738282	-224.7910003662108	-233.6620025634766	105.3860015869141	-227.3670043945312	-153.4629974365234	38.17599868774416	-111.0080032348633	-156.5809936523438	83.7799987792969	-159.4730072021484	-522.39697265625	948.781982421875	-171.4689941406248	-440.9700012207031	1375.097045898438	-79.51999664306611	-187.5079956054688	595.9869995117188	-151.9570007324217	-257.3670043945312	751.2269897460938	-143.5449981689451	-262.3890075683594	593.4600219726562	-47.99999999999986	-195.2200012207031	279.0499877929688	-165.7140045166015	-268.739990234375	305.0570068359375	-68.73000335693352	-118.9059982299805	55.62300109863284	-142.7339935302734	-172.0290069580078	422.6180114746094	-154.938003540039	-414.9620056152344	837.2429809570312	-25.34900093078595	-471.4410095214844	827.218017578125	17.39399909973163	-333.8139953613281	1179.891967773438	-247.5149993896482	-537.864013671875	1140.9599609375	-237.9600067138669	
104	1.03	-443.3009948730469	1437.678955078125	-266.1119995117184	-346.5239868164062	1337.073974609375	-255.0839996337888	-597.9119873046875	76.67600250244146	-283.0190124511719	-370.7539978027344	929.7310180664064	-361.9169921874998	-395.9309997558594	1544.595947265625	-339.7160034179684	-349.2770080566406	1036.970947265625	-498.783996582031	-245.2339935302734	1599.203979492188	-313.5950012207028	-178.5350036621094	808.8079833984376	-503.0499877929686	-445.7850036621094	33.74200057983404	-250.9010009765625	-639.4310302734375	39.93299865722661	-238.6580047607422	-525.573974609375	462.6380004882813	-345.2789916992186	-496.6390075683594	455.2860107421876	-232.0800018310546	-571.0640258789062	89.59600067138676	-208.3289947509765	-501.406005859375	22.29100036621101	-333.0849914550781	-512.3909912109375	71.44699859619146	-273.52099609375	-521.4600219726562	951.7280273437501	-275.2929992675779	-410.7109985351562	1356.5419921875	-429.5159912109372	-432.5830078125	519.3729858398439	-303.0350036621093	-375.0199890136719	679.1749877929689	-320.2789916992186	-504.4089965820312	558.3049926757814	-401.4320068359374	-528.4019775390625	203.9459991455079	-269.8179931640624	-587.3049926757812	291.5660095214844	-373.2890014648437	-463.1789855957031	35.96599960327155	-293.5820007324219	-484.7780151367188	377.4700012207032	-293.6369934082031	-186.0899963378906	853.1359863281251	-456.0719909667967	-224.6950073242188	836.9860229492189	-511.4119873046873	-218.4160003662109	83.98600006103518	-148.875	-347.4389953613281	933.02197265625	-119.4779968261717	-513.6630249023438	1323.81396484375	-139.61799621582	-400.6159973144531	1529.68505859375	-178.7129974365231	-512.72998046875	1069.944946289062	-21.75499916076636	-257.8259887695312	1585.087036132812	-189.6990051269528	-416.7070007324219	780.8790283203125	21.81800079345721	-67.06300354003906	60.6990013122559	-183.8339996337891	-263.3829956054688	39.75999832153325	-193.8309936523438	-215.6569976806641	488.6730041503906	-105.5770034790038	-208.5599975585938	486.2739868164063	-225.4069976806639	-202.5809936523438	103.9069976806641	-228.5359954833984	-118.7229995727539	39.66199874877933	-112.7190017700195	-123.7789993286133	84.97299957275395	-161.2579956054687	-511.5369873046875	947.114013671875	-171.4170074462889	-429.9349975585938	1373.336059570312	-79.47599792480439	-177.4389953613281	594.25	-150.7440032958983	-247.1020050048828	748.948974609375	-141.4620056152342	-255.2469940185547	589.7589721679688	-48.14699935913073	-172.9019927978516	279.2739868164063	-166.6410064697265	-247.9080047607422	301.0929870605469	-69.39399719238274	-85.06700134277344	58.19100189208988	-144.6519927978516	-157.6439971923828	423.1820068359376	-155.4360046386718	-406.5400085449219	834.60302734375	-26.10600090026837	-463.2170104980469	825.1190185546875	16.4449996948244	-322.5769958496094	1178.35595703125	-247.6970062255857	-526.739013671875	1139.56494140625	-237.7409973144529	
105	1.04	-432.2550048828125	1436.10595703125	-265.9450073242184	-335.2659912109375	1335.629028320312	-255.0039978027341	-597.5189819335938	77.44999694824224	-282.9570007324219	-360.7330017089844	928.1810302734376	-362.158996582031	-385.5169982910156	1543.238037109375	-339.3699951171872	-332.7430114746094	1037.485961914062	-500.8009948730466	-235.3070068359375	1598.800048828125	-312.7550048828122	-156.3730010986328	813.4060058593751	-503.720001220703	-445.7309875488281	33.74399948120123	-250.9530029296875	-639.3150024414062	40.98899841308599	-238.5740051269531	-520.2789916992188	462.4819946289063	-345.4519958496093	-491.6440124511719	454.9719848632813	-232.2279968261718	-570.4450073242188	90.17800140380864	-208.3329925537109	-501.3519897460938	22.30800056457527	-332.9819946289062	-512.0800170898438	71.61199951171881	-273.5020141601562	-510.9450073242188	950.3959960937501	-274.9219970703123	-399.2789916992188	1355.452026367188	-429.3659973144528	-426.5889892578125	518.3800048828126	-302.730010986328	-367.1319885253906	677.6619873046876	-320.1619873046873	-497.489990234375	557.7760009765626	-401.6409912109374	-526.6179809570312	203.9389953613282	-269.7839965820312	-584.0280151367188	292.1749877929688	-373.4830017089843	-463.0929870605469	35.96500015258795	-293.6109924316406	-480.8389892578125	376.9150085449219	-293.6560058593749	-165.5099945068359	857.5490112304689	-456.7959899902342	-203.0859985351562	840.3930053710939	-512.4790039062498	-186.9600067138672	82.30300140380862	-149.8529968261718	-336.0979919433594	931.0449829101562	-119.6510009765623	-502.4869995117188	1322.134033203125	-139.6970062255857	-390.4719848632812	1527.93896484375	-178.4049987792965	-502.1570129394531	1068.057983398438	-23.05599975585914	-248.0570068359375	1584.359985351562	-188.9479980468747	-408.9110107421875	778.1589965820312	20.96299934387224	-35.07300186157227	64.67700195312504	-186.7339935302734	-230.9380035400391	36.60400009155278	-194.6640014648438	-204.3849945068359	486.4630126953125	-105.8889999389647	-196.4049987792969	485.1199951171876	-226.0019989013671	-173.0820007324219	103.1809997558594	-229.7019958496093	-85.21199798583984	41.8689994812012	-114.9449996948242	-92.47299957275391	86.83200073242192	-163.4669952392578	-500.5329895019531	945.3889770507812	-171.1869964599607	-418.7879943847656	1371.52099609375	-79.3499984741208	-167.6970062255859	592.0999755859375	-149.0989990234374	-236.8209991455078	746.3839721679688	-138.9219970703123	-249.0059967041016	585.4530029296875	-48.23699951171862	-151.5410003662109	279.7349853515626	-167.7420043945312	-227.1280059814453	297.5989990234375	-69.9059982299804	-52.64400100708008	61.43700027465824	-147.2729949951172	-143.7279968261719	423.5050048828126	-156.0910034179687	-397.9469909667969	831.9099731445312	-26.79299926757794	-454.7860107421875	822.9669799804688	15.58600044250507	-311.3359985351562	1176.751953125	-247.8119964599607	-515.5709838867188	1138.176025390625	-237.4170074462888	
